<svg width="21" height="21" viewBox="0 0 21 21" fill="none" xmlns="http://www.w3.org/2000/svg">
<g clip-path="url(#clip0_3236_8982)">
<path d="M10.9902 0.211426C5.46796 0.211426 0.990234 4.68828 0.990234 10.211C0.990234 15.7337 5.46753 20.2105 10.9902 20.2105C16.5134 20.2105 20.9902 15.7337 20.9902 10.211C20.9902 4.68828 16.5134 0.211426 10.9902 0.211426ZM10.9902 3.20141C12.8175 3.20141 14.2982 4.68257 14.2982 6.50897C14.2982 8.33582 12.8175 9.81654 10.9902 9.81654C9.16383 9.81654 7.68311 8.33582 7.68311 6.50897C7.68311 4.68257 9.16383 3.20141 10.9902 3.20141ZM10.988 17.5961C9.16558 17.5961 7.49643 16.9324 6.20898 15.8338C5.89536 15.5663 5.71438 15.1741 5.71438 14.7625C5.71438 12.9102 7.21355 11.4277 9.06631 11.4277H12.915C14.7682 11.4277 16.2617 12.9102 16.2617 14.7625C16.2617 15.1745 16.0816 15.5659 15.7675 15.8334C14.4805 16.9324 12.8109 17.5961 10.988 17.5961Z" fill="#8F9EB0"/>
</g>
<defs>
<clipPath id="clip0_3236_8982">
<rect width="20" height="20" fill="white" transform="translate(0.990234 0.210938)"/>
</clipPath>
</defs>
</svg>
