<svg width="17" height="16" viewBox="0 0 17 16" fill="none" xmlns="http://www.w3.org/2000/svg">
<g clip-path="url(#clip0_3008_7855)">
<path d="M14.6463 0.942383H13.2346V2.35415C13.2346 2.6365 12.9993 2.82474 12.764 2.82474C12.5287 2.82474 12.2934 2.6365 12.2934 2.35415V0.942383H4.76397V2.35415C4.76397 2.6365 4.52868 2.82474 4.29338 2.82474C4.05809 2.82474 3.82279 2.6365 3.82279 2.35415V0.942383H2.41103C1.70515 0.942383 1.1875 1.55415 1.1875 2.35415V4.04827H16.2463V2.35415C16.2463 1.55415 15.3993 0.942383 14.6463 0.942383ZM1.1875 5.0365V13.6483C1.1875 14.4953 1.70515 15.06 2.45809 15.06H14.6934C15.4463 15.06 16.2934 14.4483 16.2934 13.6483V5.0365H1.1875ZM5.37574 12.9424H4.24632C4.05809 12.9424 3.86985 12.8012 3.86985 12.5659V11.3894C3.86985 11.2012 4.01103 11.013 4.24632 11.013H5.42279C5.61103 11.013 5.79926 11.1541 5.79926 11.3894V12.5659C5.75221 12.8012 5.61103 12.9424 5.37574 12.9424ZM5.37574 8.70709H4.24632C4.05809 8.70709 3.86985 8.56591 3.86985 8.33062V7.15415C3.86985 6.96591 4.01103 6.77768 4.24632 6.77768H5.42279C5.61103 6.77768 5.79926 6.91885 5.79926 7.15415V8.33062C5.75221 8.56591 5.61103 8.70709 5.37574 8.70709ZM9.14044 12.9424H7.96397C7.77574 12.9424 7.5875 12.8012 7.5875 12.5659V11.3894C7.5875 11.2012 7.72868 11.013 7.96397 11.013H9.14044C9.32868 11.013 9.51691 11.1541 9.51691 11.3894V12.5659C9.51691 12.8012 9.37574 12.9424 9.14044 12.9424ZM9.14044 8.70709H7.96397C7.77574 8.70709 7.5875 8.56591 7.5875 8.33062V7.15415C7.5875 6.96591 7.72868 6.77768 7.96397 6.77768H9.14044C9.32868 6.77768 9.51691 6.91885 9.51691 7.15415V8.33062C9.51691 8.56591 9.37574 8.70709 9.14044 8.70709ZM12.9051 12.9424H11.7287C11.5404 12.9424 11.3522 12.8012 11.3522 12.5659V11.3894C11.3522 11.2012 11.4934 11.013 11.7287 11.013H12.9051C13.0934 11.013 13.2816 11.1541 13.2816 11.3894V12.5659C13.2816 12.8012 13.1404 12.9424 12.9051 12.9424ZM12.9051 8.70709H11.7287C11.5404 8.70709 11.3522 8.56591 11.3522 8.33062V7.15415C11.3522 6.96591 11.4934 6.77768 11.7287 6.77768H12.9051C13.0934 6.77768 13.2816 6.91885 13.2816 7.15415V8.33062C13.2816 8.56591 13.1404 8.70709 12.9051 8.70709Z" fill="#2400FF"/>
</g>
<defs>
<clipPath id="clip0_3008_7855">
<rect width="16" height="16" fill="white" transform="translate(0.71875 0.000976562)"/>
</clipPath>
</defs>
</svg>
