<svg width="114" height="174" xmlns="http://www.w3.org/2000/svg"><defs><linearGradient x1="40.4%" y1="35.4%" x2="62.8%" y2="65.6%" id="a"><stop stop-color="#51697A" offset="0%"/><stop stop-color="#2A3945" offset="90%"/></linearGradient><linearGradient x1="40%" y1="35.1%" x2="62.5%" y2="65.5%" id="b"><stop stop-color="#51697A" offset="0%"/><stop stop-color="#2A3945" offset="90%"/></linearGradient><linearGradient x1="32.6%" y1="69.9%" x2="70.9%" y2="28.8%" id="c"><stop stop-color="#51697A" stop-opacity="0" offset="25%"/><stop stop-color="#2A3945" offset="94%"/></linearGradient><linearGradient x1="37.7%" y1="63.9%" x2="60.3%" y2="36.4%" id="d"><stop stop-color="#6D8494" offset="0%"/><stop stop-color="#92AABB" offset="100%"/></linearGradient><linearGradient x1="64%" y1="32.3%" x2="34.3%" y2="67.1%" id="e"><stop stop-color="#FFF" offset="0%"/><stop stop-color="#DAE6EE" offset="100%"/></linearGradient><linearGradient x1="29%" y1="82%" x2="64.6%" y2="10.8%" id="f"><stop stop-color="#6D8494" offset="0%"/><stop stop-color="#92AABB" offset="100%"/></linearGradient><linearGradient x1="71.9%" y1="87.5%" x2="38.1%" y2="-4.5%" id="g"><stop stop-color="#DAE6EE" offset="0%"/><stop stop-color="#FFF" offset="89.8%"/></linearGradient><linearGradient x1="-.1%" y1="50%" x2="99.9%" y2="50%" id="h"><stop stop-color="#51697A" offset="0%"/><stop stop-color="#7E96A5" offset="100%"/></linearGradient><linearGradient x1="56%" y1="79.4%" x2="42.7%" y2="18.8%" id="i"><stop stop-color="#51697A" offset="0%"/><stop stop-color="#7E96A5" offset="100%"/></linearGradient></defs><g transform="translate(-34 1)" fill="none" fill-rule="evenodd"><g fill-rule="nonzero"><path d="M22 4l-3-3-2-1h-1l-2 1L0 11l2 1c2 1 2 2 2 3v2l16-8 1-1 1-1V6 4z" fill="url(#a)" transform="translate(105)"/><path d="M110 15c0 2-1 2-3 1l-2-3c0-2 1-2 2-2l3 4z" fill="#B8DDFD"/></g><path d="M127 4l-2-3-3-1h-1l-1 1 3 1 2 3v4l-1 1 3-2V7 6 4z" fill="#2A3945" fill-rule="nonzero"/><path d="M121 23l-2-4 2-1 4 2 1 4c-2 1-3 0-5-1z" fill="#BACEDC" fill-rule="nonzero"/><path d="M119 20c0 10-1 21-8 23-6 2-14-6-17-9" stroke="#2F4554" stroke-width=".7" stroke-linecap="round" stroke-linejoin="round"/><g fill-rule="nonzero"><path d="M22 4l-2-3-3-1h-1l-1 1L1 11l2 1 2 3-1 2 16-8 2-1V7 6 4z" fill="url(#b)" transform="translate(112 4)"/><path d="M117 19c0 2-1 2-2 2l-2-4c0-2 1-2 2-1l2 3zM134 8l-2-3-2-1-1 1-2 1h1l2 1 2 3v4l2-1 1-2-1-3z" fill="#2A3945"/></g><path fill="url(#c)" fill-rule="nonzero" opacity=".2" d="M80 119L0 166l32 18 73-42z"/><g fill-rule="nonzero"><path d="M117 111l6 3-4 1-6-3c1-1 3-2 4-1z" fill="#6D8494"/><g fill="#6D8494"><path d="M119 115l-6-3 1-1 6 3-1 1"/><path d="M120 114l-6-3h1l5 3"/><path d="M120 114l-5-3 6 3h-1M121 114l-6-3 6 3"/><path d="M121 114l-6-3h1l6 3h-1M122 114l-6-3 6 3M122 114l-6-3 6 3"/><path d="M122 114l-6-3h1l6 3h-1M123 114l-6-3 6 3M123 114l-6-3 6 3"/></g><path d="M119 115c3-2 6-1 6 3l-18 10v-7l12-6zM107 128l-6-4v-6l6 3z" fill="#51697A"/><path fill="#6D8494" d="M107 121l-6-3 12-7 6 4z"/></g><g fill-rule="nonzero"><path d="M109 72c2-1 4 0 4 3l-2 44c-2 1-7-1-6-23V79c0-3 2-6 4-7z" fill="#BACEDC"/><path d="M104 67v-1h-2v1h-1v1h-1v1h-1v1l-1 1v2l1 17c-3 30 11 29 11 29-1-1-5-6-5-9V78l1-1v-1-1l1-1v-1h1l1-1 1-1h2l-8-4z" fill="#A8BECC"/></g><path fill="#A8BECC" fill-rule="nonzero" d="M107 121l-5-3-2-10 5 3z"/><path fill="#BACEDC" fill-rule="nonzero" d="M111 119l-4 2-2-10 6-3zM92 34l2-6 11 4-3 6z"/><circle fill="#BACEDC" fill-rule="nonzero" transform="rotate(-68 97 35)" cx="97.2" cy="35.5" r="5.8"/><path d="M112 26c-2 6-8 9-14 7-6-3-8-10-6-16s8-9 14-7l1 1c5 2 8 9 5 15z" fill="#BACEDC" fill-rule="nonzero"/><path d="M114 17c0-5-4-8-9-9h-3c-6 0-11 5-12 11v4c0 5 5 10 10 10l6-13 8-3z" fill="#2A3945" fill-rule="nonzero"/><path d="M113 73l-2-2-7-4-2-1c-2-1-4 0-5 1l-4 3-6 5-15 15-9 9-1 7 3 3 8 5v-1c2 3 6-1 8-3l9-8 18-17c3-3 6-7 5-12zm-41 40h0zm0-1z" fill="#2F4554" fill-rule="nonzero"/><path d="M92 100c0 11-6 24-15 19-11-7-19-14-19-23 0-10 10-16 21-16 10 0 13 10 13 20z" fill="#2A3945" fill-rule="nonzero"/><path d="M105 133c2-1 4 0 4 2 0 3-2 6-4 7l-39 22c0-4 4-11 9-13l30-18z" fill="#BACEDC" fill-rule="nonzero"/><path d="M105 133h3l-8-5h-2l1 4c-3 2-5 1-8 2-17 5-32 22-33 26l8 5c0-10 23-22 28-26l11-6z" fill="#A8BECC" fill-rule="nonzero"/><path d="M100 141l-9-11-6-7c-2-2-2-3-2-5 0-3 0-6 2-8s5-4 7-3l-5-3-5-3c-4 0-7 3-8 5s-2 6-1 9l8 9 9 11 5 3 6 3h-1z" fill="#2A3945" fill-rule="nonzero"/><path d="M106 125s-6-23-10-23c-5 0-13-2-16-1-9 4 2 19 2 19l1 1 17 20h5l3-3c2-3 1-8-2-13z" fill="#2F4554" fill-rule="nonzero"/><path d="M70 30c-10 3-25 14-30 18s-6 7-6 10v2h1l1 1 17 14 1 1 6 4v-1h3l3-2c1-2-15-19-18-22l22-13 12-7 2-1-14-4z" fill="#BACEDC" fill-rule="nonzero"/><path d="M82 35l-7 4-16 11 6-3 16-11 4-3-3 2z" fill="#6D8494" fill-rule="nonzero"/><path d="M69 29L53 39l7 10 15-10 13-8c-5-5-13-6-19-2z" fill="#6D8494" fill-rule="nonzero"/><path d="M142 56l-8-15-6-11c-1-3 0-12-4-8-5 7 18 34 18 34z" fill="#A8BECC" fill-rule="nonzero"/><path d="M139 43h-30c-3 0-6 3-6 6s2 4 3 5l5 2c-2-1 0-4 0-6 1-1 3-3 5-3h30l-7-4z" fill="#A8BECC" fill-rule="nonzero"/><path d="M114 48l2-1h29c2 0 3 2 2 5 0 2-2 3-3 4l-2 1h-29c-2 0-3-3-2-5 0-2 1-3 3-4z" fill="#BACEDC" fill-rule="nonzero"/><path d="M147 47c1 1 1 7-2 7-4-1-23-28-19-33 3-3 21 26 21 26z" fill="#BACEDC" fill-rule="nonzero"/><path d="M66 165l-8-5s0-3 5-7l6-6 7 4-7 7c-2 2-3 4-3 7z" fill="#A8BECC" fill-rule="nonzero"/><path d="M76 159l-10 6c0-3 1-5 3-7l7-7v8z" fill="#BACEDC" fill-rule="nonzero"/><g fill-rule="nonzero"><path d="M68 151l3 3-9 14-3 4h-5l14-21z" fill="#6D8494"/><g fill="#51697A"><path d="M55 172l-6-3 5 3z"/><path d="M55 172l-6-3 5 3h1"/></g><path fill="#51697A" d="M54 172l-5-4 13-20 6 3z"/></g><path fill="#6D8494" fill-rule="nonzero" d="M83 106L58 92l14-51 24 14z"/><path d="M104 43l3-1c4 0 6 4 5 10l-13 51-16 3 13-51c2-5 4-9 8-12z" fill="#92AABB" fill-rule="nonzero"/><path d="M106 43h4l-16-9-8-5h-6c-4 2-7 7-8 12l24 14c2-5 5-10 10-12z" fill="url(#d)" fill-rule="nonzero"/><path d="M105 40h-4c-5 2-7 8-8 13l5 2c3-10 11-13 11-13l-4-2zM85 29h-4c-5 2-8 7-9 12l5 2c1-4 4-10 9-12h4l-5-2z" fill="#DAE6EE" fill-rule="nonzero"/><g fill-rule="nonzero"><path fill="#DAE6EE" d="M73 95L47 80l10-29 26 14z"/><path d="M102 47L87 92l-14 3 10-30c3-8 9-16 14-17l5-1z" fill="#DAE6EE"/><path d="M38 31c2-5 4-9 8-12 3-3 6-3 10-4L30 0c-5 1-8 2-12 5-3 4-6 8-7 13l26 15 1-2z" fill="url(#e)" transform="translate(46 33)"/></g><g fill-rule="nonzero"><path fill="#92AABB" d="M116 47l-7-5h12l7 5zM114 48l2-1h12l-4 13h-12c-3 0-4-3-3-7l5-5z"/><path d="M8 17c-1-4 3-12 7-12L8 1C5 1 2 4 1 6c-3 7 3 8 9 12l-2-1z" fill="url(#f)" transform="translate(101 42)"/></g><path d="M127 14c2 4 1 8-3 10-2 1-2-2-3-6l-3-3c1-1 6-5 9-1z" fill="#BACEDC" fill-rule="nonzero"/><g fill-rule="nonzero"><path d="M68 61c5 4 7 11 5 16l-4 11-21-11c-2-1-3-3-2-6l2-6c2-7 8-10 14-7l5 3h1z" fill="#DAE6EE"/><path d="M36 16c0-5-2-10-7-12l-5-3-6-1-6 1c3 0 6 1 8 3 3 1 6 3 8 6 1 4 2 8 1 12l-4 7c-1 4 2 7 4 10l4-12c1-3 3-7 3-11z" fill="url(#g)" transform="translate(45 56)"/></g><circle fill="#DAE6EE" fill-rule="nonzero" cx="51.6" cy="74.9" r="6.9"/><path stroke="#6D8494" stroke-width=".6" d="M123 16l-4-2M124 16l-4-3M126 15l-4-3"/><path fill="#DAE6EE" fill-rule="nonzero" d="M92 78l-2 8 16-10 1-7z"/><path d="M96 7c10-4 19-3 21 2s-4 12-14 15c-10 4-19 3-21-2s4-11 14-15z" fill="url(#h)" fill-rule="nonzero"/><path d="M109 10c2 4-2 9-8 11s-12 1-13-3c-2-4 1-11 7-13s13 0 14 5z" fill="url(#i)" fill-rule="nonzero"/></g></svg>