<?xml version="1.0" encoding="utf-8"?>
<!-- Generator: Adobe Illustrator 26.3.1, SVG Export Plug-In . SVG Version: 6.00 Build 0)  -->
<svg version="1.1" fill="#fff" id="Layer_1" xmlns="http://www.w3.org/2000/svg" xmlns:xlink="http://www.w3.org/1999/xlink" x="0px" y="0px"
	 viewBox="0 0 40 40" style="enable-background:new 0 0 40 40;" xml:space="preserve">
<g>
	<path d="M37.6,4.1c0,0.1,0,0.1,0,0.2c0,9,0,22.9,0,31.8c0,0.1,0,0.1,0,0.2c-0.4,1.9-1.5,3.2-3.4,3.8c-0.2,0.1-0.4,0.1-0.7,0.2h-27
		c-0.1,0-0.1-0.1-0.2-0.1c-2.2-0.4-3.9-2.3-3.9-4.6c0-8.7,0-22.2,0-30.9C2.4,2.1,4.5,0,7,0c8.7,0,17.3,0,26,0c2.2,0,4,1.5,4.5,3.6
		C37.6,3.8,37.6,3.9,37.6,4.1z M3.5,19.5c11,0,22,0,32.9,0c0-0.1,0-0.3,0-0.4c0-3.9,0-10.3,0-14.2c0-2.2-1.5-3.7-3.7-3.7
		c-8.5,0-17,0-25.5,0C5,1.2,3.5,2.7,3.5,4.9c0,3.9,0,10.3,0,14.2C3.5,19.2,3.5,19.4,3.5,19.5z M3.5,20.7c0,0.1,0,0.2,0,0.3
		c0,4,0,10.5,0,14.5c0,0.3,0,0.6,0.1,0.9C4,38,5.4,39,7.2,39c8.5,0,17,0,25.5,0c2.2,0,3.7-1.5,3.7-3.7c0-3.9,0-10.3,0-14.2
		c0-0.1,0-0.2,0-0.4C25.5,20.7,14.5,20.7,3.5,20.7z"/>
	<g>
		<path d="M21.7,14c-0.9,0-1.7-0.2-2.4-0.8c-0.5-0.4-0.8-0.9-0.8-1.5c0-0.4,0.2-0.6,0.5-0.7c0.4,0,0.6,0.2,0.7,0.5
			c0,0.4,0.3,0.6,0.6,0.8c1,0.5,2,0.6,3,0c0.8-0.4,0.7-1.1,0-1.6c-0.5-0.3-1-0.4-1.6-0.4c-0.8,0-1.6-0.2-2.3-0.7
			c-1.1-0.9-1.1-2.3,0-3.2c1.3-1,3.5-1,4.8,0c0.5,0.4,0.8,0.8,0.8,1.4c0.1,0.4-0.1,0.7-0.5,0.8c-0.4,0.1-0.6-0.1-0.7-0.6
			c-0.1-0.4-0.3-0.6-0.6-0.8c-1-0.5-2-0.6-3,0c-0.8,0.4-0.8,1.1,0,1.6c0.5,0.3,1,0.4,1.5,0.4c0.8,0,1.5,0.2,2.2,0.7
			c0.8,0.5,1.1,1.3,0.9,2.1c-0.2,0.6-0.5,1-1,1.3C23.2,13.8,22.5,14,21.7,14z"/>
		<path d="M32,14c-0.2,0-0.4-0.2-0.5-0.4c-0.2-0.6-0.5-1.1-0.7-1.7c-0.1-0.2-0.2-0.2-0.4-0.2c-0.9,0-1.7,0-2.6,0
			c-0.2,0-0.3,0.1-0.4,0.3c-0.2,0.5-0.4,1.1-0.7,1.6c-0.2,0.4-0.5,0.6-0.8,0.4c-0.3-0.1-0.4-0.5-0.3-0.9c0.9-2.3,1.9-4.6,2.9-6.9
			c0.1-0.3,0.3-0.5,0.6-0.5c0.3,0,0.5,0.2,0.6,0.4c1,2.3,1.9,4.6,2.9,6.9C32.8,13.6,32.5,14,32,14z M28.1,10.4c0.7,0,1.4,0,2.1,0
			c-0.4-0.9-0.7-1.7-1.1-2.6C28.7,8.8,28.4,9.6,28.1,10.4z"/>
		<path d="M10.9,11.9c0.7-1.7,1.3-3.2,2-4.8c0.1-0.3,0.2-0.6,0.4-0.9c0.2-0.3,0.5-0.5,0.8-0.3c0.3,0.1,0.4,0.5,0.3,0.8
			c-1,2.3-1.9,4.6-2.9,7c-0.1,0.3-0.3,0.4-0.6,0.4c-0.3,0-0.5-0.2-0.6-0.4c-1-2.3-1.9-4.6-2.9-6.9c-0.2-0.4,0-0.7,0.3-0.9
			c0.3-0.1,0.6,0,0.8,0.4c0.7,1.7,1.4,3.4,2.1,5.1C10.7,11.5,10.8,11.6,10.9,11.9z"/>
		<path d="M16.8,9.9c0,1.1,0,2.3,0,3.4c0,0.4-0.2,0.6-0.5,0.7c-0.4,0-0.7-0.2-0.7-0.6c0-0.4,0-0.8,0-1.2c0-1.8,0-3.7,0-5.5
			c0-0.1,0-0.2,0-0.3c0.1-0.3,0.3-0.5,0.6-0.5c0.3,0,0.5,0.2,0.5,0.6c0,0.6,0,1.2,0,1.9C16.8,8.8,16.8,9.3,16.8,9.9z"/>
	</g>
	<path d="M12.9,36c-1.8,0-3.6,0-5.4,0C6,36,5,35,5,33.5c0-2.8,0-5.7,0-8.5c0-1.5,1-2.5,2.5-2.5c3.7,0,7.3,0,11,0
		c1.5,0,2.4,1,2.5,2.4c0,2.9,0,5.7,0,8.6c0,1.5-1,2.5-2.5,2.5C16.6,36,14.8,36,12.9,36z M17.3,34.8c0.4,0,0.7,0,1.1,0
		c0.8,0,1.3-0.5,1.3-1.3c0-2.9,0-5.8,0-8.6c0-0.8-0.5-1.2-1.2-1.2c-3.7,0-7.4,0-11,0c-0.8,0-1.2,0.5-1.3,1.2c0,0.5,0,0.9,0,1.4
		c0,2.4,0,4.8,0,7.2c0,0.7,0.3,1.2,0.9,1.3c0.5,0.1,0.9,0,1.4,0c-0.2-2.1,0.6-3.8,2.5-4.9c-1.2-1.3-0.8-2.9,0-3.7
		c0.9-1,2.5-1.1,3.5-0.2c0.5,0.4,0.8,0.9,1,1.6c0.2,0.9-0.1,1.7-0.7,2.4C16.8,31,17.5,32.6,17.3,34.8z M16.2,34.8
		c0.2-1.8-0.4-3.1-1.7-3.7c-1.2-0.6-2.6-0.5-3.6,0.4c-1,0.8-1.5,2.3-1.1,3.4C11.9,34.8,14,34.8,16.2,34.8z M13,29.5
		c0.8,0,1.5-0.7,1.5-1.5c0-0.8-0.7-1.5-1.5-1.5c-0.8,0-1.5,0.7-1.5,1.5C11.5,28.8,12.1,29.5,13,29.5z"/>
	<g>
		<path d="M28.8,35.4c-3.4,0-6.2-2.8-6.2-6.2c0-3.4,2.8-6.2,6.2-6.2c3.4,0,6.2,2.8,6.2,6.2C35,32.6,32.2,35.4,28.8,35.4z M33.8,29.2
			c0-2.8-2.2-5-5-5c-2.7,0-5,2.2-5,5c0,2.8,2.2,5,5,5C31.6,34.2,33.8,32,33.8,29.2z"/>
		<path d="M27.4,31.1c1.4-1.2,2.7-2.4,4-3.5c0.1-0.1,0.2-0.2,0.3-0.3c0.3-0.2,0.6-0.2,0.8,0.1c0.2,0.2,0.2,0.6,0,0.8
			c-0.3,0.3-0.7,0.6-1,0.9c-1.2,1.1-2.4,2.1-3.6,3.2c-0.4,0.4-0.7,0.3-1,0c-0.5-0.5-1-1-1.6-1.6c-0.3-0.3-0.3-0.6-0.1-0.9
			c0.3-0.3,0.6-0.2,0.9,0.1C26.5,30.2,26.9,30.6,27.4,31.1z"/>
	</g>
</g>
</svg>
